Coordinates
version=1
nRows=8
nColumns=36
inDegrees=yes

Units are S.I. units (second, meters, Newtons, ...)
If the header above contains a line with 'inDegrees', this indicates whether rotational values are in degrees (yes) or radians (no).

endheader
time	pelvis_tilt	pelvis_list	pelvis_rotation	pelvis_tx	pelvis_ty	pelvis_tz	hip_flexion_r	hip_adduction_r	hip_rotation_r	knee_angle_r	knee_angle_r_beta	ankle_angle_r	subtalar_angle_r	mtp_angle_r	hip_flexion_l	hip_adduction_l	hip_rotation_l	knee_angle_l	knee_angle_l_beta	ankle_angle_l	subtalar_angle_l	mtp_angle_l	lumbar_extension	lumbar_bending	lumbar_rotation	arm_flex_r	arm_add_r	arm_rot_r	elbow_flex_r	pro_sup_r	arm_flex_l	arm_add_l	arm_rot_l	elbow_flex_l	pro_sup_l
      0.00000000	      4.50895495	     -2.04272649	      2.40878407	     -1.10243295	      1.31846286	     -0.06528896	     -4.28160714	      3.43889179	     -3.38640535	      4.55678757	      0.07953095	     -4.24905099	    -15.90553584	     -5.81859291	     -3.44258980	     -2.28655077	      1.31685218	      7.03897363	      0.12285327	      4.74297866	     -4.20826008	     -5.81859291	    -13.53886197	      4.18597837	     -0.85502763	      5.15989718	     -8.52150597	     17.43964663	     24.06857388	     71.47763966	      3.31256314	     -7.27999022	     24.17231254	     22.30157487	     62.15422378
      0.00416670	      3.90139887	     -0.74444724	      2.93275610	     -1.10207132	      1.31996038	     -0.06562229	     -3.71825893	      2.47831161	     -4.20256734	      4.33575036	      0.07567312	     -1.72784689	    -13.19303434	     -5.97709853	     -3.12680515	     -0.66133454	      0.78654357	      6.25335426	      0.10914162	      4.08201864	     -1.62657837	     -5.97709853	    -12.55330374	      2.62025129	     -1.45522568	      4.95614838	     -7.24607966	     14.44687789	     23.09400755	     70.51436410	      3.27358714	     -6.99023750	     22.69986978	     21.65305738	     62.04081065
      0.00833330	      3.13181874	      0.04668391	      2.70466385	     -1.10195995	      1.32312835	     -0.06395130	     -3.19855262	      1.79422201	     -5.68927642	      3.65640053	      0.06381623	     -1.12597988	    -11.90337784	     -6.98695670	     -2.70707876	      0.07435321	     -0.68657996	      5.47149379	      0.09549558	      3.84160255	      0.38064144	     -6.98695670	    -11.72193478	      1.35404898	     -0.86910442	      3.68238482	     -5.80902045	      6.17202653	     24.35868949	     75.70012895	      3.36847459	     -6.93687066	     19.26257779	     21.68978362	     67.83850995
      0.01250000	      3.90316523	      0.38585571	      2.66873363	     -1.10139386	      1.31870795	     -0.06461243	     -4.13971461	      1.42892038	     -6.29941733	      3.35165788	      0.05849747	     -0.45523123	    -11.00977682	     -6.98257350	     -4.02792457	      0.44053122	     -1.34338445	      4.75426013	      0.08297749	      3.80760563	      1.53518842	     -6.98257350	    -12.85449503	      0.83368187	     -0.78152021	      3.63942122	     -5.33720181	      4.59896144	     24.86412426	     74.94445450	      3.53733823	     -7.26436211	     18.69562263	     22.18319015	     67.83252639
      0.01666670	      4.27368797	      0.52302900	      2.82428096	     -1.10101828	      1.31988998	     -0.06519297	     -4.76624609	      1.30626094	     -6.76957244	      3.06895842	      0.05356343	     -0.18714315	    -10.57523790	     -7.02203186	     -4.77304557	      0.65226474	     -1.36642016	      4.19015171	      0.07313194	      3.72061130	      1.85822637	     -7.02203186	    -13.42400933	      0.71026847	     -0.88521831	      3.59329964	     -5.14441290	      4.08165350	     25.20394971	     74.19505087	      3.73138171	     -7.40640706	     18.70497494	     22.31318502	     67.63957216
      0.02083330	      4.72506042	      0.58094823	      2.91134627	     -1.10072626	      1.31877769	     -0.06460888	     -5.45374395	      1.31128439	     -6.95597512	      2.87041776	      0.05009824	      0.08147513	    -10.16947828	     -7.07004150	     -5.41382448	      0.70946907	     -1.60254448	      3.92975819	      0.06858722	      3.76351148	      2.01706994	     -7.07004150	    -14.05693359	      0.66988979	     -0.76308041	      3.55359186	     -5.12131886	      3.87526127	     25.70675160	     73.25240667	      3.90348591	     -7.55133843	     18.91424935	     22.72109089	     67.38830349
      0.02500000	      4.68603640	      0.60854759	      2.98632661	     -1.10102409	      1.32347329	     -0.06493605	     -5.48697098	      1.25554716	     -6.97993026	      2.78938262	      0.04868391	      0.08316136	    -10.14458222	     -7.07059830	     -5.39227930	      0.74863383	     -1.62285204	      3.85400404	      0.06726506	      3.71574704	      2.06981472	     -7.07059830	    -14.05989896	      0.70355565	     -0.76706556	      3.60131659	     -5.12738809	      3.89679741	     25.73206967	     73.25686151	      4.02582481	     -7.50264419	     18.95348618	     22.77808657	     67.41309964
      0.02916670	      5.20255686	      0.61872587	      3.09791340	     -1.09966393	      1.32308624	     -0.06450792	     -6.36285124	      1.34079466	     -7.19768026	      2.32056426	      0.04050149	      0.08355902	     -9.48989937	     -7.30277075	     -6.13094602	      0.68421544	     -1.82660151	      3.55959366	      0.06212663	      3.54946695	      2.63218220	     -7.30277075	    -14.71543824	      0.69359761	     -0.65925933	      3.58531234	     -5.50908023	      6.17979676	     26.13942911	     69.74290698	      4.36791427	     -7.85216383	     21.39236656	     23.01405052	     66.64146544
